<svg id="Layer_1" data-name="Layer 1" xmlns="http://www.w3.org/2000/svg" viewBox="0 0 404.2 153">
  <title>1clouds2</title>
  <g>
    <g>
      <path d="M518.6,561.2S462,571,478,541.2c12.9-24,40.6-8,40.6-8s7.4-19.3,31.4-16.6c0,0-2-29.3,27.3-48s48.6,0,48.6,0,12-56,70-53,76,46.3,76,59.7c0,0,43.9-8.7,43.3,30,0,0,34.6-6,31.3,24,0,0,40,3.9,26,29.3,0,0-11.8,5.3-40.7,5.3-27.3,0-111.2-2.3-152.6.2S577.3,558.6,518.6,561.2Z" transform="translate(-473.1 -413.5)" fill="#fff"/>
      <path d="M518.1,559.3c-11,1.9-29.4,4.6-38.5-3.3-3.3-2.8-2.6-7.1-1.3-10.7a23,23,0,0,1,16.5-14.9c7.4-1.6,16.3.9,22.8,4.6a2.1,2.1,0,0,0,3-1.2c4.4-11.4,17.6-16.2,29.4-15.2a2.1,2.1,0,0,0,2-2c-1-15.3,7.5-30.3,18.4-40.3,13.6-12.6,38.7-20.9,54.1-6.3a2,2,0,0,0,3.4-.9c6.1-28.1,30.2-49.5,58.8-51.5,23.4-1.6,47.9,6.3,64.8,22.6,8.9,8.6,18.2,22.1,18.4,35.1a2,2,0,0,0,2.5,1.9,50.1,50.1,0,0,1,18.9.1c14.5,2.6,21.9,13.5,21.9,28a2,2,0,0,0,2.5,1.9,38.2,38.2,0,0,1,13.9.3c11.3,2.2,15.9,10.8,14.9,21.8-.1,1.1,1,1.9,2,2a51.5,51.5,0,0,1,17.2,4.9c4,1.9,7.7,4.7,9.2,9s.3,11-2.1,11.9c-20.8,7.6-45.5,4.8-67.4,4.5-29.9-.4-59.9-.9-89.8-.5-13.3.1-26.6.7-39.9,1.3-17.6.7-35.3-.2-52.9-1-34-1.7-68.1-3.6-102.2-2.2-2.5.1-2.5,4.1,0,4,40.9-1.7,81.7,1.6,122.6,3,29.5,1,59.1-1.2,88.7-1.3s57.6.5,86.5.9c18.3.2,39.9,2.1,57.1-5.5,4-1.8,4.2-11.7,3.5-15.2s-4.7-8.4-8.6-10.9c-6.3-4.1-14.5-6.2-21.9-6.9.7.6,1.3,1.3,2,2,1-11.2-3.1-20.5-14-24.6-6.1-2.3-13.5-2.4-19.9-1.4l2.6,2c0-14.7-6.6-26.4-20.9-30.9-7.8-2.5-16.9-2.6-25-1.1l2.6,2c-.3-13.8-9.5-27.5-18.6-37-17.1-17.8-42.6-25.4-66.8-24.8-31,.8-57.9,24.4-64.5,54.6l3.3-.9c-16-15.2-40.6-8.4-56.3,3.4-13.6,10.3-24.1,28.4-23,46a18.9,18.9,0,0,1,2-2c-13.6-1.2-28,4.7-33.3,18.1l2.9-1.2c-8-4.6-18.1-6.7-27.2-4.6s-22.1,16-18.6,27.4c2.6,8.8,15.1,10,22.6,10.4a116,116,0,0,0,22.8-1.5C521.7,562.7,520.6,558.9,518.1,559.3Z" transform="translate(-473.1 -413.5)"/>
    </g>
    <g>
      <path d="M579.5,485.4c23.2-14.8,38.4,0,38.4,0" transform="translate(-473.1 -413.5)" fill="#fff"/>
      <path d="M580.5,487.1c10.6-6.4,25.9-9.8,36-.3,1.9,1.7,4.7-1.1,2.8-2.9-11.4-10.7-28.6-7.6-40.8-.3-2.2,1.4-.2,4.8,2,3.5Z" transform="translate(-473.1 -413.5)"/>
    </g>
    <g>
      <path d="M696.7,434.2c42.5,2.2,55.6,34,55.6,43.7" transform="translate(-473.1 -413.5)" fill="#fff"/>
      <path d="M696.7,436.2c16.1,1.1,31.2,6.5,42.3,18.5,5.6,5.9,11.2,14.8,11.3,23.2.1,2.6,4.1,2.6,4,0-.2-9.7-6.2-19.1-12.4-26.1-11.5-12.8-28.4-18.5-45.2-19.6-2.6-.1-2.6,3.9,0,4Z" transform="translate(-473.1 -413.5)"/>
    </g>
    <g>
      <path d="M614.6,530.1s11.5-21.6,40.4-21.9,34.4,21.4,34.4,21.4" transform="translate(-473.1 -413.5)" fill="#fff"/>
      <path d="M616.3,531.1c7.1-13,22.5-19.9,36.7-20.8s30.7,5.2,34.5,19.8c.6,2.5,4.5,1.5,3.9-1-4-15.1-20-22.2-34.3-22.9-16.7-.8-35.9,7.6-44.2,22.9-1.2,2.2,2.2,4.3,3.4,2Z" transform="translate(-473.1 -413.5)"/>
    </g>
  </g>
</svg>
