<svg width="25" height="25" viewBox="0 0 25 25" fill="none" xmlns="http://www.w3.org/2000/svg">
<path opacity="0.1" fill-rule="evenodd" clip-rule="evenodd" d="M0.550049 12.5C0.550049 5.87258 5.92263 0.5 12.55 0.5C19.1775 0.5 24.55 5.87258 24.55 12.5C24.55 19.1274 19.1775 24.5 12.55 24.5C5.92263 24.5 0.550049 19.1274 0.550049 12.5Z" fill="#515151"/>
<path fill-rule="evenodd" clip-rule="evenodd" d="M12.5506 6.09961C10.8125 6.09961 10.5943 6.10721 9.91166 6.13828C9.23032 6.16948 8.76525 6.27734 8.35831 6.43561C7.93738 6.59908 7.58031 6.81775 7.22457 7.17362C6.86857 7.52936 6.6499 7.88643 6.48589 8.30723C6.32723 8.7143 6.21923 9.17951 6.18856 9.86058C6.15802 10.5433 6.15002 10.7615 6.15002 12.4997C6.15002 14.2378 6.15776 14.4553 6.18869 15.138C6.22003 15.8193 6.32789 16.2844 6.48603 16.6913C6.64963 17.1123 6.8683 17.4693 7.22417 17.8251C7.57977 18.1811 7.93684 18.4003 8.35751 18.5637C8.76472 18.722 9.22992 18.8299 9.91113 18.8611C10.5938 18.8921 10.8118 18.8997 12.5498 18.8997C14.2881 18.8997 14.5056 18.8921 15.1883 18.8611C15.8696 18.8299 16.3352 18.722 16.7424 18.5637C17.1632 18.4003 17.5197 18.1811 17.8753 17.8251C18.2314 17.4693 18.45 17.1123 18.614 16.6915C18.7714 16.2844 18.8794 15.8192 18.9114 15.1381C18.942 14.4554 18.95 14.2378 18.95 12.4997C18.95 10.7615 18.942 10.5434 18.9114 9.86071C18.8794 9.17937 18.7714 8.7143 18.614 8.30737C18.45 7.88643 18.2314 7.52936 17.8753 7.17362C17.5193 6.81762 17.1633 6.59895 16.742 6.43561C16.334 6.27734 15.8687 6.16948 15.1873 6.13828C14.5046 6.10721 14.2873 6.09961 12.5486 6.09961H12.5506ZM11.9765 7.25294C12.1469 7.25267 12.337 7.25294 12.5506 7.25294C14.2594 7.25294 14.462 7.25907 15.1368 7.28974C15.7608 7.31827 16.0994 7.42254 16.325 7.51014C16.6237 7.62614 16.8366 7.76481 17.0605 7.98881C17.2845 8.21281 17.4232 8.42615 17.5394 8.72482C17.627 8.95015 17.7315 9.28882 17.7599 9.91283C17.7905 10.5875 17.7972 10.7902 17.7972 12.4982C17.7972 14.2062 17.7905 14.4089 17.7599 15.0836C17.7313 15.7076 17.627 16.0462 17.5394 16.2716C17.4234 16.5702 17.2845 16.7829 17.0605 17.0068C16.8365 17.2308 16.6238 17.3694 16.325 17.4854C16.0997 17.5734 15.7608 17.6774 15.1368 17.706C14.4621 17.7366 14.2594 17.7433 12.5506 17.7433C10.8416 17.7433 10.6391 17.7366 9.96444 17.706C9.34043 17.6772 9.00176 17.5729 8.77602 17.4853C8.47735 17.3693 8.26402 17.2306 8.04002 17.0066C7.81601 16.7826 7.67735 16.5698 7.56108 16.271C7.47348 16.0457 7.36908 15.707 7.34068 15.083C7.31001 14.4083 7.30388 14.2057 7.30388 12.4966C7.30388 10.7875 7.31001 10.5859 7.34068 9.91123C7.36921 9.28722 7.47348 8.94855 7.56108 8.72295C7.67708 8.42428 7.81601 8.21095 8.04002 7.98694C8.26402 7.76294 8.47735 7.62427 8.77602 7.50801C9.00163 7.42001 9.34043 7.316 9.96444 7.28734C10.5548 7.26067 10.7836 7.25267 11.9765 7.25134V7.25294ZM15.9669 8.31562C15.5429 8.31562 15.1989 8.65922 15.1989 9.08336C15.1989 9.50736 15.5429 9.85137 15.9669 9.85137C16.3909 9.85137 16.7349 9.50736 16.7349 9.08336C16.7349 8.65935 16.3909 8.31562 15.9669 8.31562ZM12.5506 9.21296C10.7355 9.21296 9.26393 10.6846 9.26393 12.4997C9.26393 14.3147 10.7355 15.7857 12.5506 15.7857C14.3657 15.7857 15.8368 14.3147 15.8368 12.4997C15.8368 10.6846 14.3657 9.21296 12.5506 9.21296ZM12.5506 10.3663C13.7288 10.3663 14.684 11.3214 14.684 12.4997C14.684 13.6778 13.7288 14.633 12.5506 14.633C11.3723 14.633 10.4173 13.6778 10.4173 12.4997C10.4173 11.3214 11.3723 10.3663 12.5506 10.3663Z" fill="#515151"/>
</svg>
